#!OML:ASF H:\LiuWeirdWalks\Patient Classification 1\Patient 1\Session 1\male.ASF
:FULLY-SPECIFIED
:DEGREES
1281
root 2.91223 18.1294 33.4222 2.04589 4.29738 1.61558
lowerback 3.59869 -0.374653 -6.99692
upperback 1.60883 -0.717282 1.43323
thorax -0.248611 -0.397171 5.44707
lowerneck -25.6273 0.633766 3.43197
upperneck 33.1328 0.86222 -3.78995
head 16.184 0.228549 -2.06201
rclavicle -1.53561e-014 3.18055e-015
rhumerus -22.9454 -24.371 -14.2976
rradius 29.8149
rwrist -16.7617
rhand -29.9164 -0.489062
rfingers 7.12502
rthumb -3.23668 -30.4442
lclavicle -1.53561e-014 3.18055e-015
lhumerus -30.2675 18.3374 25.2496
lradius 39.5788
lwrist 24.5611
lhand -30.5126 0.160909
lfingers 7.12502
lthumb -3.81246 30.1066
rfemur -10.0236 -1.47206 12.5077
rtibia 28.174
rfoot -9.60893 -19.9915
rtoes -4.5652
lfemur -5.61895 -3.77104 -20.0548
ltibia 20.8133
lfoot -7.76509 14.6745
ltoes -9.18033
1282
root 2.90311 18.1327 33.4352 2.1515 4.3334 1.72996
lowerback 3.48266 -0.422739 -7.08258
upperback 1.59526 -0.775707 1.4884
thorax -0.186779 -0.429065 5.55413
lowerneck -25.6354 0.668589 3.44363
upperneck 33.057 0.955397 -3.91484
head 16.1546 0.248653 -2.09721
rclavicle -7.0817e-015 -2.5842e-015
rhumerus -22.9555 -24.1633 -14.9403
rradius 30.057
rwrist -17.2912
rhand -30.1088 -0.369773
rfingers 7.12502
rthumb -3.42257 -30.322
lclavicle -7.0817e-015 -2.5842e-015
lhumerus -30.7588 18.2094 25.8958
lradius 40.0958
lwrist 24.2624
lhand -30.4195 0.455292
lfingers 7.12502
lthumb -3.72256 30.4025
rfemur -10.0769 -1.5194 12.4166
rtibia 28.178
rfoot -9.67085 -20.0047
rtoes -4.53777
lfemur -5.56866 -3.8394 -20.1466
ltibia 20.5892
lfoot -7.67733 14.6917
ltoes -9.16948
1283
root 2.89437 18.1359 33.4476 2.26534 4.37109 1.86958
lowerback 3.3697 -0.472971 -7.19629
upperback 1.57801 -0.83807 1.53464
thorax -0.12924 -0.462826 5.66783
lowerneck -25.6354 0.703001 3.45232
upperneck 32.9862 1.04425 -4.02629
head 16.1259 0.268794 -2.12693
rclavicle -1.717e-014 2.8625e-014
rhumerus -22.9858 -23.8956 -15.648
rradius 30.3179
rwrist -17.8308
rhand -30.2708 -0.240739
rfingers 7.12502
rthumb -3.57897 -30.1904
lclavicle -1.717e-014 2.8625e-014
lhumerus -31.2859 18.058 26.5978
lradius 40.6667
lwrist 23.9009
lhand -30.2602 0.803356
lfingers 7.12502
lthumb -3.56874 30.7532
rfemur -10.1387 -1.56915 12.2959
rtibia 28.1835
rfoot -9.73323 -20.0164
rtoes -4.50004
lfemur -5.52403 -3.89583 -20.2657
ltibia 20.3561
lfoot -7.59017 14.6953
ltoes -9.14909
1284
root 2.88626 18.139 33.4594 2.39061 4.40612 2.04054
lowerback 3.26171 -0.528979 -7.34845
upperback 1.54798 -0.909815 1.57222
thorax -0.0853332 -0.500584 5.79465
lowerneck -25.614 0.744341 3.47404
upperneck 32.9237 1.13819 -4.13777
head 16.0968 0.292987 -2.15787
rclavicle -8.69683e-015 3.33958e-014
rhumerus -23.0231 -23.5291 -16.4356
rradius 30.6029
rwrist -18.4284
rhand -30.4177 -0.127825
rfingers 7.12502
rthumb -3.72084 -30.0751
lclavicle -8.69683e-015 3.33958e-014
lhumerus -31.8675 17.873 27.3438
lradius 41.2753
lwrist 23.4531
lhand -30.0285 1.17741
lfingers 7.12502
lthumb -3.345 31.1309
rfemur -10.2086 -1.62149 12.1379
rtibia 28.1832
rfoot -9.7916 -20.0223
rtoes -4.45829
lfemur -5.49055 -3.94532 -20.4198
ltibia 20.1217
lfoot -7.51005 14.6922
ltoes -9.12057
1285
root 2.87816 18.1425 33.4709 2.48485 4.44547 2.08889
lowerback 3.18315 -0.577534 -7.36629
upperback 1.51888 -0.969687 1.63655
thorax -0.060614 -0.53107 5.8731
lowerneck -25.5957 0.769313 3.47066
upperneck 32.8873 1.20871 -4.22104
head 16.0796 0.308779 -2.17776
rclavicle -7.00716e-015 -1.19271e-015
rhumerus -23.1269 -23.1572 -17.2562
rradius 30.9188
rwrist -18.9689
rhand -30.5095 -0.036907
rfingers 7.12502
rthumb -3.80948 -29.9826
lclavicle -7.00716e-015 -1.19271e-015
lhumerus -32.4421 17.6351 28.1693
lradius 41.9028
lwrist 22.9575
lhand -29.7399 1.56665
lfingers 7.12502
lthumb -3.06626 31.5244
rfemur -10.2446 -1.63212 12.1206
rtibia 28.1682
rfoot -9.85009 -20.0675
rtoes -4.40792
lfemur -5.43433 -3.9808 -20.4365
ltibia 19.8894
lfoot -7.44677 14.6711
ltoes -9.08716
1286
root 2.8703 18.1461 33.4818 2.58935 4.48383 2.14626
lowerback 3.10424 -0.610919 -7.36883
upperback 1.48641 -1.00905 1.68378
thorax -0.0429365 -0.550729 5.92427
lowerneck -25.6111 0.776012 3.45934
upperneck 32.8599 1.2491 -4.28991
head 16.0727 0.313177 -2.19681
rclavicle -1.68967e-015 -9.14409e-015
rhumerus -23.3354 -22.8406 -18.0909
rradius 31.2697
rwrist -19.3835
rhand -30.5105 0.0408996
rfingers 7.12502
rthumb -3.81047 -29.9048
lclavicle -1.68967e-015 -9.14409e-015
lhumerus -32.9639 17.3382 29.091
lradius 42.5217
lwrist 22.4391
lhand -29.4189 2.00122
lfingers 7.12502
lthumb -2.75627 31.9632
rfemur -10.2893 -1.62343 12.0936
rtibia 28.1468
rfoot -9.90415 -20.1289
rtoes -4.35275
lfemur -5.38865 -4.01578 -20.4624
ltibia 19.6537
lfoot -7.3854 14.6461
ltoes -9.05113
1287
root 2.86268 18.1495 33.4921 2.69515 4.52005 2.21799
lowerback 3.03339 -0.642618 -7.38555
upperback 1.44814 -1.04736 1.72439
thorax -0.0357098 -0.569296 5.97666
lowerneck -25.6379 0.775781 3.43095
upperneck 32.8542 1.27986 -4.33981
head 16.0782 0.314306 -2.20737
rclavicle 5.26779e-015 -1.82882e-014
rhumerus -23.5967 -22.4943 -18.9781
rradius 31.6618
rwrist -19.7391
rhand -30.4597 0.101695
rfingers 7.12502
rthumb -3.76137 -29.8449
lclavicle 5.26779e-015 -1.82882e-014
lhumerus -33.4824 17.0041 30.0895
lradius 43.1356
lwrist 21.92
lhand -29.099 2.46344
lfingers 7.12502
lthumb -2.44735 32.4291
rfemur -10.3384 -1.59741 12.0502
rtibia 28.1283
rfoot -9.95635 -20.2029
rtoes -4.30056
lfemur -5.33694 -4.05296 -20.5048
ltibia 19.4044
lfoot -7.31985 14.6219
ltoes -9.02905
1288
root 2.8553 18.1527 33.5019 2.80727 4.55312 2.31887
lowerback 2.96574 -0.667306 -7.42399
upperback 1.40419 -1.07733 1.75082
thorax -0.0372599 -0.583185 6.02639
lowerneck -25.6739 0.772508 3.40562
upperneck 32.8404 1.30595 -4.39418
head 16.0817 0.313123 -2.22123
rclavicle -1.0138e-014 1.55052e-014
rhumerus -23.9328 -22.1169 -19.9075
rradius 32.0989
rwrist -20.0319
rhand -30.347 0.130678
rfingers 7.12502
rthumb -3.6526 -29.8178
lclavicle -1.0138e-014 1.55052e-014
lhumerus -33.9785 16.6253 31.1679
lradius 43.7147
lwrist 21.3316
lhand -28.7331 2.933
lfingers 7.12502
lthumb -2.09392 32.9025
rfemur -10.4054 -1.5651 11.9732
rtibia 28.1312
rfoot -10.0138 -20.2817
rtoes -4.25674
lfemur -5.2761 -4.09144 -20.5799
ltibia 19.126
lfoot -7.23904 14.5968
ltoes -9.01897
1289
root 2.84843 18.1554 33.5111 2.93046 4.57583 2.50241
lowerback 2.90088 -0.674545 -7.52153
upperback 1.35393 -1.08605 1.7405
thorax -0.0497512 -0.585875 6.07071
lowerneck -25.7338 0.750694 3.36193
upperneck 32.8335 1.30574 -4.43147
head 16.0922 0.30118 -2.23034
rclavicle 6.90777e-015 -5.56597e-015
rhumerus -24.3902 -21.8072 -20.8344
rradius 32.5697
rwrist -19.9914
rhand -30.0542 0.103157
rfingers 7.12502
rthumb -3.36976 -29.85
lclavicle 6.90777e-015 -5.56597e-015
lhumerus -34.4317 16.1792 32.3436
lradius 44.2728
lwrist 20.7404
lhand -28.3479 3.38704
lfingers 7.12502
lthumb -1.72187 33.3598
rfemur -10.4975 -1.54005 11.7999
rtibia 28.1613
rfoot -10.0723 -20.3466
rtoes -4.22857
lfemur -5.20526 -4.13509 -20.7488
ltibia 18.8167
lfoot -7.14438 14.581
ltoes -9.01225
1290
root 2.84172 18.1579 33.5199 3.05188 4.59843 2.67545
lowerback 2.84063 -0.686641 -7.6199
upperback 1.30634 -1.10143 1.73581
thorax -0.0608239 -0.592036 6.12165
lowerneck -25.8228 0.738578 3.32826
upperneck 32.8292 1.31812 -4.47759
head 16.1116 0.294135 -2.24281
rclavicle -9.59136e-015 -8.34896e-015
rhumerus -24.8735 -21.549 -21.8054
rradius 33.0494
rwrist -19.6972
rhand -29.6076 0.0541457
rfingers 7.12502
rthumb -2.9385 -29.9054
lclavicle -9.59136e-015 -8.34896e-015
lhumerus -34.907 15.766 33.5601
lradius 44.7752
lwrist 19.9255
lhand -27.8176 3.80853
lfingers 7.12502
lthumb -1.20976 33.7848
rfemur -10.5962 -1.5138 11.638
rtibia 28.2023
rfoot -10.1305 -20.414
rtoes -4.20805
lfemur -5.1308 -4.17215 -20.9057
ltibia 18.4988
lfoot -7.0469 14.5588
ltoes -9.01387
1291
root 2.83552 18.1602 33.5283 3.18775 4.61576 2.8773
lowerback 2.76697 -0.700319 -7.74867
upperback 1.26257 -1.11846 1.72019
thorax -0.0596589 -0.599711 6.17814
lowerneck -25.9554 0.728718 3.29592
upperneck 32.8434 1.32909 -4.51464
head 16.1499 0.287779 -2.25287
rclavicle -1.36167e-014 -5.1684e-015
rhumerus -25.3845 -21.3583 -22.8164
rradius 33.5251
rwrist -19.1414
rhand -28.9832 0.01775
rfingers 7.12502
rthumb -2.33549 -29.9492
lclavicle -1.36167e-014 -5.1684e-015
lhumerus -35.4021 15.4222 34.7984
lradius 45.2355
lwrist 18.7232
lhand -27.0213 4.27045
lfingers 7.12502
lthumb -0.440683 34.2497
rfemur -10.7017 -1.49861 11.4413
rtibia 28.2211
rfoot -10.1688 -20.4693
rtoes -4.19611
lfemur -5.09156 -4.19683 -21.0946
ltibia 18.2197
lfoot -6.9701 14.5326
ltoes -9.01833
1292
root 2.83061 18.1623 33.5365 3.30272 4.63615 2.99645
lowerback 2.69136 -0.732809 -7.80488
upperback 1.22975 -1.15807 1.73069
thorax -0.0432757 -0.619477 6.22104
lowerneck -26.0702 0.741646 3.29621
upperneck 32.8331 1.36559 -4.56933
head 16.1741 0.293428 -2.27007
rclavicle 5.51627e-015 1.70955e-014
rhumerus -25.8904 -21.1016 -23.9161
rradius 34.0599
rwrist -18.4603
rhand -28.2279 -0.0815527
rfingers 7.12502
rthumb -1.60603 -30.0553
lclavicle 5.51627e-015 1.70955e-014
lhumerus -35.9659 15.2159 36.0018
lradius 45.6331
lwrist 16.9311
lhand -25.838 4.72421
lfingers 7.12502
lthumb 0.702255 34.7028
rfemur -10.7575 -1.50437 11.3323
rtibia 28.1707
rfoot -10.1735 -20.5041
rtoes -4.18367
lfemur -5.08648 -4.21284 -21.1965
ltibia 18.0431
lfoot -6.95386 14.512
ltoes -9.01402
1293
root 2.82809 18.1644 33.5441 3.34888 4.67696 2.89645
lowerback 2.62446 -0.796399 -7.64429
upperback 1.21961 -1.23383 1.80454
thorax -0.00587485 -0.658295 6.20757
lowerneck -26.0863 0.786408 3.34509
upperneck 32.7932 1.43834 -4.64844
head 16.164 0.317206 -2.2969
rclavicle -7.70291e-015 -2.78299e-015
rhumerus -26.4081 -20.6299 -25.1416
rradius 34.775
rwrist -17.7874
rhand -27.38 -0.357844
rfingers 7.12502
rthumb -0.787134 -30.3361
lclavicle -7.70291e-015 -2.78299e-015
lhumerus -36.6239 15.1479 37.164
lradius 46.0002
lwrist 14.7447
lhand -24.3531 5.06716
lfingers 7.12502
lthumb 2.1363 35.0362
rfemur -10.7041 -1.53545 11.4612
rtibia 28.0244
rfoot -10.1391 -20.5218
rtoes -4.17668
lfemur -5.09238 -4.21388 -21.0641
ltibia 18.0054
lfoot -7.0221 14.4825
ltoes -9.01352
1294
root 2.82825 18.1663 33.551 3.3236 4.73993 2.57221
lowerback 2.56022 -0.88521 -7.24609
upperback 1.23477 -1.33752 1.9359
thorax 0.0559052 -0.711987 6.11909
lowerneck -25.9923 0.853036 3.43577
upperneck 32.6894 1.53307 -4.74767
head 16.0994 0.353036 -2.33203
rclavicle -2.34069e-014 3.22031e-014
rhumerus -26.9756 -19.9365 -26.4807
rradius 35.7033
rwrist -17.1347
rhand -26.4492 -0.843903
rfingers 7.12502
rthumb 0.111897 -30.8236
lclavicle -2.34069e-014 3.22031e-014
lhumerus -37.3338 15.1627 38.3218
lradius 46.3543
lwrist 12.4437
lhand -22.7127 5.23766
lfingers 7.12502
lthumb 3.72056 35.1849
rfemur -10.5324 -1.6053 11.8316
rtibia 27.7677
rfoot -10.0579 -20.5106
rtoes -4.1737
lfemur -5.11563 -4.19873 -20.6928
ltibia 18.1249
lfoot -7.18225 14.4419
ltoes -9.01088
